<svg width="2035" height="2009" viewBox="0 0 2035 2009" fill="none" xmlns="http://www.w3.org/2000/svg">
<path d="M2009.32 797.393C1960.3 553.313 1820.38 321.483 1652.89 203.013C1442.98 54.5332 1191.45 -19.3968 935.297 4.38322C818.407 15.2332 700.977 36.9832 593.327 85.3132C480.727 135.863 296.137 273.733 226.437 354.923C156.727 436.123 75.5372 568.633 43.3672 670.503C11.1972 772.373 -6.16282 889.313 2.00718 955.183C2.00718 955.183 10.6872 937.823 12.7272 919.693C14.7772 901.563 26.5172 855.863 26.5172 855.863C26.5172 855.863 27.3672 930.163 23.9672 976.463C23.9672 976.463 39.0272 942.163 42.0972 901.053C45.1572 859.953 60.7272 758.093 93.9172 679.463C93.5472 680.173 81.4972 703.243 70.6172 734.893C70.8372 733.563 78.1472 690.633 102.607 634.673C127.437 577.863 158.387 520.053 179.497 492.103C178.087 495.013 132.127 589.033 100.627 660.403C101.657 658.543 112.807 638.293 118.297 628.783C118.007 629.883 108.567 665.513 98.2672 689.143C87.7972 713.143 74.3472 744.293 62.4372 805.223C50.5172 866.163 41.8372 923.523 44.8972 998.073C44.8972 998.073 45.1572 977.313 47.1972 956.803C47.1972 956.803 59.8372 954.923 64.8172 929.013C69.7972 903.103 79.7972 792.293 99.8772 756.883C99.8772 756.883 98.0072 770.203 101.967 785.903C101.967 785.903 108.217 772.883 121.877 767.013C121.877 767.013 119.967 803.183 125.247 837.903C125.247 837.903 137.667 801.823 160.477 756.543C183.287 711.273 218.007 646.923 229.587 625.143C241.157 603.353 280.987 559.443 299.707 530.503C318.437 501.563 384.797 426.013 412.037 399.453C411.527 400.083 395.297 420.393 380.057 459.343C381.787 457.713 603.417 249.023 833.077 197.143C1063.63 145.053 1266.61 196.373 1374.61 248.463C1482.61 300.543 1602.86 371.013 1705.5 510.413C1808.14 649.823 1854.1 793.313 1868.39 929.143C1882.69 1064.97 1859.2 1278.41 1766.27 1434.67C1673.33 1590.92 1478.73 1829.9 1126.16 1873.82C778.367 1917.14 581.847 1778.59 576.587 1774.83C580.897 1778.18 710.097 1877.1 952.557 1889.9C1199.2 1902.92 1449.67 1850.33 1707.03 1566.41C1707.03 1566.41 1693.25 1608.8 1618.69 1675.69C1544.14 1742.58 1421.54 1859.04 1126.16 1891.7C830.777 1924.37 691.367 1849.31 596.387 1798.75C501.427 1748.21 400.837 1670.09 318.627 1573.59C320.047 1575.74 411.727 1713.87 630.097 1828.37C850.177 1943.78 1125.93 1910.07 1125.93 1910.07C1125.93 1910.07 949.247 1950.92 716.897 1875.86C484.557 1800.8 367.117 1655.27 281.327 1550.07C196.357 1445.88 150.467 1299.62 149.597 1296.84C150.197 1299.46 181.577 1434.26 267.537 1547.52C350.177 1656.4 428.317 1723.79 435.647 1730.04C427.377 1723.41 329.027 1643.46 253.757 1539.35C175.117 1430.58 149.587 1331.52 149.587 1331.52C149.587 1331.52 147.537 1399.95 244.557 1539.86C341.587 1679.78 444.217 1756.37 552.477 1828.88C660.727 1901.39 872.137 1953.48 967.117 1959.1C967.117 1959.1 806.777 1971.86 605.077 1870.24C403.397 1768.64 294.127 1620.58 240.497 1551.13C241.127 1552.28 261.827 1589.7 304.047 1641.22L285.927 1625.99C285.927 1625.99 292.367 1637.53 298.317 1644.17C296.957 1643.09 252.997 1607.55 183.627 1496.97C113.157 1384.63 88.3072 1286.92 88.3072 1286.92C88.3072 1286.92 105.667 1381.56 178.687 1500.03C251.707 1618.5 322.177 1693.05 448.557 1796.46C574.947 1899.86 785.587 1988.71 984.727 1989.48C984.727 1989.48 837.927 2013.22 646.947 1924.88C455.967 1836.54 358.947 1770.67 224.137 1595.01C89.3272 1419.35 29.5772 1196.97 28.0372 1063.95C28.0372 1063.95 12.7172 1138.5 49.4872 1264.63C86.2572 1390.75 147.527 1541.39 282.337 1688.46C417.147 1835.52 583.357 1922.07 760.297 1977.22C937.237 2032.37 1255.62 2016.8 1471.11 1905.48C1686.6 1794.16 1830.6 1638.92 1940.89 1405.05C2039.17 1196.67 2027.18 953.023 2023.41 902.393C2026.9 947.933 2038.34 1148.29 1985.07 1316.2C1925.45 1504.08 1823.47 1629.53 1820.47 1633.22C1823.01 1630.81 1878.36 1577.31 1954.17 1413.73C2031.79 1246.24 2058.34 1041.48 2009.32 797.393ZM347.357 310.243C308.817 353.143 262.707 388.773 261.267 389.873C277.677 368.173 304.817 336.533 324.467 317.143C344.127 297.733 393.917 251.523 439.107 220.633C483.237 190.453 548.487 156.623 551.507 155.073C448.427 219.053 386.487 266.693 347.357 310.243ZM512.637 148.633C479.447 169.563 413.827 212.203 357.657 257.903C302.367 302.903 259.197 352.913 257.857 354.463C258.697 353.043 283.627 311.833 337.487 266.333C392.297 220.033 436.547 184.883 517.237 136.883C596.657 89.6332 676.567 68.6132 679.047 67.9732C624.407 92.4932 545.817 127.703 512.637 148.633ZM1634.17 1789.39C1574.26 1837.39 1479.62 1889.82 1414.94 1919.78C1350.32 1949.7 1209.92 1993.91 1073.87 1988.21C1082.64 1988.42 1240.14 1991.04 1410.34 1913.14C1584.12 1833.6 1714.67 1713.84 1716.7 1711.97C1716 1712.87 1693.15 1742.14 1634.17 1789.39Z" fill="url(#paint0_linear_109_186)"/>
<path d="M972.387 785.393C972.387 785.393 1080.48 672.033 1080.48 539.523C1080.48 407.013 972.387 297.312 972.387 297.312C972.387 297.312 864.297 407.013 864.297 539.523C864.297 672.033 972.387 785.393 972.387 785.393Z" fill="url(#paint1_linear_109_186)"/>
<path d="M1063.37 906.283C1088.26 923.003 1119.8 930.663 1119.8 930.663L1125.08 889.613C1107.56 886.723 1091.11 882.523 1076.07 877.703L1063.37 906.283Z" fill="url(#paint2_linear_109_186)"/>
<path d="M1000.81 808.622C1000.81 808.622 1077.24 863.772 1174.68 863.772C1267.87 863.772 1348.55 808.622 1348.55 808.622C1348.55 808.622 1259.7 753.982 1169.83 753.982C1077.92 753.992 1000.81 808.622 1000.81 808.622Z" fill="url(#paint3_linear_109_186)"/>
<path d="M1171.01 415.523C1160.19 361.583 1141.05 323.053 1141.05 323.053C1141.05 323.053 1104.99 341.653 1065.68 376.693C1078.68 400.903 1090.73 428.543 1099.05 458.603C1123.68 440.843 1148.2 426.713 1171.01 415.523Z" fill="url(#paint4_linear_109_186)"/>
<path d="M1110.47 539.523C1110.47 628.133 1067.55 707.433 1033.8 756.083C1063.64 742.353 1104.47 728.083 1150.04 724.733L1151.7 722.583C1311.02 609.223 1292.04 405.223 1292.04 405.223C1292.04 405.223 1197.92 420.433 1106.22 490.643C1108.93 506.473 1110.47 522.803 1110.47 539.523Z" fill="url(#paint5_linear_109_186)"/>
<path d="M1202.01 724.372H1245.58C1263.56 704.682 1284.18 682.342 1298.69 659.182C1321.5 622.752 1337.49 581.362 1347.86 536.812C1352.95 514.962 1356.12 494.522 1358.04 476.402H1319.79C1317.99 492.112 1316.06 509.902 1312.48 528.632C1304.58 569.922 1290.64 607.982 1270.05 641.142C1250.18 673.132 1228.07 698.382 1202.01 724.372Z" fill="url(#paint6_linear_109_186)"/>
<path d="M972.386 825.113L961.516 832.953C959.726 834.243 936.786 850.553 900.336 865.963C926.496 963.043 972.386 1021.56 972.386 1021.56C972.386 1021.56 1018.28 963.043 1044.44 865.963C1007.99 850.553 985.036 834.243 983.256 832.953L972.386 825.113Z" fill="url(#paint7_linear_109_186)"/>
<path d="M819.697 889.623L824.977 930.673C824.977 930.673 856.507 923.013 881.407 906.293L868.707 877.723C853.667 882.533 837.217 886.723 819.697 889.623Z" fill="url(#paint8_linear_109_186)"/>
<path d="M774.937 753.992C685.067 753.992 596.217 808.632 596.217 808.632C596.217 808.632 676.897 863.782 770.087 863.782C867.537 863.782 943.957 808.632 943.957 808.632C943.957 808.632 866.857 753.992 774.937 753.992Z" fill="url(#paint9_linear_109_186)"/>
<path d="M879.096 376.693C839.786 341.653 803.726 323.053 803.726 323.053C803.726 323.053 784.586 361.573 773.766 415.523C796.576 426.713 821.096 440.843 845.726 458.603C854.036 428.543 866.086 400.903 879.096 376.693Z" fill="url(#paint10_linear_109_186)"/>
<path d="M793.066 722.583L794.726 724.733C840.306 728.083 881.126 742.353 910.966 756.083C877.216 707.423 834.296 628.133 834.296 539.523C834.296 522.803 835.836 506.473 838.546 490.643C746.846 420.433 652.726 405.223 652.726 405.223C652.726 405.223 633.746 609.223 793.066 722.583Z" fill="url(#paint11_linear_109_186)"/>
<path d="M646.086 659.182C660.586 682.342 681.216 704.682 699.196 724.372H742.766C716.706 698.382 694.596 673.142 674.726 641.142C654.136 607.982 640.206 569.922 632.296 528.632C628.716 509.902 626.786 492.112 624.986 476.402H586.736C588.656 494.522 591.826 514.962 596.916 536.812C607.286 581.362 623.276 622.752 646.086 659.182Z" fill="url(#paint12_linear_109_186)"/>
<path d="M505.1 1412.8V1404H554.05V1412.8H534.25V1481H524.9V1412.8H505.1ZM651.603 1443.6V1434.8H704.403V1443.6H651.603ZM698.133 1404H707.483V1481H698.133V1404ZM646.433 1404H655.783V1481H646.433V1404ZM812.736 1481V1472.2H851.566V1481H812.736ZM812.736 1412.8V1404H851.566V1412.8H812.736ZM812.736 1443.6V1434.8H849.366V1443.6H812.736ZM807.566 1404H816.916V1481H807.566V1404ZM964.294 1443.05H974.744L1002.24 1481H990.694L964.294 1443.05ZM950.544 1404H959.894V1481H950.544V1404ZM955.714 1412.25V1404H971.444C976.431 1404 980.867 1404.95 984.754 1406.86C988.714 1408.69 991.831 1411.33 994.104 1414.78C996.451 1418.23 997.624 1422.33 997.624 1427.1C997.624 1431.79 996.451 1435.9 994.104 1439.42C991.831 1442.87 988.714 1445.54 984.754 1447.45C980.867 1449.28 976.431 1450.2 971.444 1450.2H955.714V1441.95H971.444C974.744 1441.95 977.641 1441.36 980.134 1440.19C982.701 1439.02 984.681 1437.33 986.074 1435.13C987.541 1432.93 988.274 1430.25 988.274 1427.1C988.274 1423.95 987.541 1421.27 986.074 1419.07C984.681 1416.87 982.701 1415.18 980.134 1414.01C977.641 1412.84 974.744 1412.25 971.444 1412.25H955.714ZM1101.97 1457.9L1105.27 1449.1H1139.37L1142.67 1457.9H1101.97ZM1122.1 1421.38L1109.12 1451.96L1108.24 1453.94L1096.8 1481H1086.35L1122.1 1400.15L1157.85 1481H1147.4L1136.18 1454.6L1135.3 1452.4L1122.1 1421.38ZM1249.71 1404H1259.06V1481H1249.71V1404ZM1254.88 1412.8V1404H1270.61C1275.6 1404 1280.04 1404.95 1283.92 1406.86C1287.88 1408.69 1291 1411.33 1293.27 1414.78C1295.62 1418.23 1296.79 1422.33 1296.79 1427.1C1296.79 1431.79 1295.62 1435.9 1293.27 1439.42C1291 1442.87 1287.88 1445.54 1283.92 1447.45C1280.04 1449.28 1275.6 1450.2 1270.61 1450.2H1254.88V1441.4H1270.61C1275.6 1441.4 1279.63 1440.19 1282.71 1437.77C1285.87 1435.35 1287.44 1431.79 1287.44 1427.1C1287.44 1422.33 1285.87 1418.78 1282.71 1416.43C1279.63 1414.01 1275.6 1412.8 1270.61 1412.8H1254.88ZM1431.06 1404H1441.51L1415.88 1447.78V1481H1406.53V1447.89L1380.9 1404H1391.35L1411.15 1439.64L1431.06 1404Z" fill="white"/>
<path d="M379.5 1148.25H369.25C368.75 1141.08 367.583 1135.08 365.75 1130.25C363.917 1125.42 361.25 1121.67 357.75 1119C354.417 1116.17 350.167 1114.17 345 1113C339.833 1111.83 333.667 1111.25 326.5 1111.25C320.333 1111.25 315.333 1111.42 311.5 1111.75C307.833 1111.92 305 1112.33 303 1113C301 1113.67 299.667 1114.5 299 1115.5C298.5 1116.33 298.25 1117.5 298.25 1119V1252.75C298.25 1258.08 298.583 1262.67 299.25 1266.5C300.083 1270.33 301.583 1273.5 303.75 1276C306.083 1278.33 309.333 1280.17 313.5 1281.5C317.833 1282.67 323.5 1283.33 330.5 1283.5V1293H236V1283.5C243 1283.33 248.667 1282.67 253 1281.5C257.333 1280.17 260.583 1278.33 262.75 1276C265.083 1273.5 266.583 1270.33 267.25 1266.5C268.083 1262.67 268.5 1258.08 268.5 1252.75V1119C268.5 1117.5 268.167 1116.33 267.5 1115.5C267 1114.5 265.833 1113.67 264 1113C262.333 1112.33 259.917 1111.92 256.75 1111.75C253.583 1111.42 249.333 1111.25 244 1111.25C237.5 1111.25 231.417 1111.5 225.75 1112C220.25 1112.5 215.417 1114 211.25 1116.5C207.25 1118.83 204 1122.5 201.5 1127.5C199 1132.5 197.667 1139.42 197.5 1148.25H188.25V1100.5H377L379.5 1148.25ZM548.184 1148.75C548.184 1162.08 544.184 1173.17 536.184 1182C528.184 1190.83 515.434 1196.75 497.934 1199.75L553.184 1266.25C557.684 1271.75 562.6 1275.75 567.934 1278.25C573.434 1280.58 579.934 1282.33 587.434 1283.5V1293H539.184L477.934 1214.5C475.767 1211.67 473.684 1209.42 471.684 1207.75C469.85 1206.08 467.85 1204.83 465.684 1204C463.684 1203 461.267 1202.42 458.434 1202.25C455.767 1201.92 452.517 1201.75 448.684 1201.75V1253.75C448.684 1259.92 449.017 1265 449.684 1269C450.517 1272.83 452.1 1275.83 454.434 1278C456.934 1280.17 460.434 1281.67 464.934 1282.5C469.6 1283.17 475.684 1283.5 483.184 1283.5V1293H394.934V1283.5C400.767 1283.33 405.434 1282.83 408.934 1282C412.6 1281.17 415.434 1279.75 417.434 1277.75C419.434 1275.75 420.767 1272.92 421.434 1269.25C422.1 1265.58 422.434 1260.83 422.434 1255V1138.5C422.434 1132.67 422.1 1128 421.434 1124.5C420.934 1120.83 419.767 1118 417.934 1116C416.267 1113.83 413.767 1112.42 410.434 1111.75C407.1 1110.92 402.767 1110.33 397.434 1110V1100.5H475.934C498.934 1100.5 516.684 1104.75 529.184 1113.25C541.85 1121.75 548.184 1133.58 548.184 1148.75ZM448.684 1189.25H466.434C483.1 1189.25 495.434 1186.25 503.434 1180.25C511.6 1174.08 515.684 1164 515.684 1150C515.684 1136.5 512.434 1126.83 505.934 1121C499.6 1115.17 489.6 1112.25 475.934 1112.25H452.934C450.1 1112.25 448.684 1113.67 448.684 1116.5V1189.25ZM755.834 1215.5C755.834 1228.67 754.501 1240.25 751.834 1250.25C749.334 1260.25 745.167 1268.58 739.334 1275.25C733.667 1281.92 726.251 1287 717.084 1290.5C707.917 1293.83 696.834 1295.5 683.834 1295.5C671.501 1295.5 660.751 1294.33 651.584 1292C642.417 1289.5 634.751 1285.5 628.584 1280C622.417 1274.33 617.834 1267 614.834 1258C611.834 1249 610.334 1237.92 610.334 1224.75V1158.75C610.334 1146.42 610.001 1136.92 609.334 1130.25C608.834 1123.58 607.167 1118.67 604.334 1115.5C602.334 1113.33 599.584 1111.92 596.084 1111.25C592.751 1110.42 588.251 1110 582.584 1110V1100.5H667.834V1110C662.167 1110 657.584 1110.33 654.084 1111C650.584 1111.67 647.834 1113.33 645.834 1116C643.501 1119 642.001 1123.83 641.334 1130.5C640.667 1137 640.334 1146.42 640.334 1158.75V1226.75C640.334 1235.25 641.167 1242.83 642.834 1249.5C644.667 1256 647.584 1261.58 651.584 1266.25C655.584 1270.75 660.751 1274.17 667.084 1276.5C673.584 1278.83 681.501 1280 690.834 1280C707.501 1280 720.001 1275.42 728.334 1266.25C736.667 1256.92 740.834 1243.25 740.834 1225.25V1165C740.834 1150.17 740.251 1138.92 739.084 1131.25C737.917 1123.58 735.751 1118.17 732.584 1115C730.251 1112.83 727.334 1111.5 723.834 1111C720.334 1110.33 716.001 1110 710.834 1110V1100.5H783.334V1110C778.001 1110 773.584 1110.42 770.084 1111.25C766.751 1112.08 764.084 1113.92 762.084 1116.75C759.584 1120.25 757.917 1125.75 757.084 1133.25C756.251 1140.58 755.834 1151.17 755.834 1165V1215.5ZM855.666 1187.25C864.666 1187.25 872.166 1186.75 878.166 1185.75C884.333 1184.58 889.166 1182.83 892.666 1180.5C896.333 1178.17 898.916 1175.17 900.416 1171.5C902.083 1167.83 902.916 1163.5 902.916 1158.5H911.666V1226.75H902.916C902.916 1221.75 902.166 1217.42 900.666 1213.75C899.333 1210.08 896.833 1207.08 893.166 1204.75C889.666 1202.25 884.833 1200.42 878.666 1199.25C872.666 1197.92 864.999 1197.25 855.666 1197.25V1253.75C855.666 1259.25 856.333 1263.83 857.666 1267.5C858.999 1271 861.249 1273.92 864.416 1276.25C867.749 1278.42 872.083 1280 877.416 1281C882.749 1281.83 889.333 1282.25 897.166 1282.25C905.999 1282.25 913.499 1281.67 919.666 1280.5C925.833 1279.17 930.999 1277 935.166 1274C939.333 1271 942.666 1267.08 945.166 1262.25C947.666 1257.25 949.749 1251.08 951.416 1243.75H960.916L957.166 1293H801.916V1283.5C807.749 1283.33 812.416 1282.83 815.916 1282C819.583 1281.17 822.416 1279.75 824.416 1277.75C826.416 1275.75 827.749 1272.92 828.416 1269.25C829.083 1265.58 829.416 1260.83 829.416 1255V1138.5C829.416 1132.67 829.083 1128 828.416 1124.5C827.916 1120.83 826.749 1118 824.916 1116C823.249 1113.83 820.749 1112.42 817.416 1111.75C814.083 1110.92 809.749 1110.33 804.416 1110V1100.5H948.916L951.166 1144.5H942.416C941.416 1137.83 939.749 1132.42 937.416 1128.25C935.249 1123.92 932.166 1120.5 928.166 1118C924.333 1115.5 919.416 1113.75 913.416 1112.75C907.416 1111.75 900.166 1111.25 891.666 1111.25H859.916C857.083 1111.25 855.666 1112.67 855.666 1115.5V1187.25ZM1232.53 1148.25H1222.28C1221.78 1141.08 1220.61 1135.08 1218.78 1130.25C1216.94 1125.42 1214.28 1121.67 1210.78 1119C1207.44 1116.17 1203.19 1114.17 1198.03 1113C1192.86 1111.83 1186.69 1111.25 1179.53 1111.25C1173.36 1111.25 1168.36 1111.42 1164.53 1111.75C1160.86 1111.92 1158.03 1112.33 1156.03 1113C1154.03 1113.67 1152.69 1114.5 1152.03 1115.5C1151.53 1116.33 1151.28 1117.5 1151.28 1119V1252.75C1151.28 1258.08 1151.61 1262.67 1152.28 1266.5C1153.11 1270.33 1154.61 1273.5 1156.78 1276C1159.11 1278.33 1162.36 1280.17 1166.53 1281.5C1170.86 1282.67 1176.53 1283.33 1183.53 1283.5V1293H1089.03V1283.5C1096.03 1283.33 1101.69 1282.67 1106.03 1281.5C1110.36 1280.17 1113.61 1278.33 1115.78 1276C1118.11 1273.5 1119.61 1270.33 1120.28 1266.5C1121.11 1262.67 1121.53 1258.08 1121.53 1252.75V1119C1121.53 1117.5 1121.19 1116.33 1120.53 1115.5C1120.03 1114.5 1118.86 1113.67 1117.03 1113C1115.36 1112.33 1112.94 1111.92 1109.78 1111.75C1106.61 1111.42 1102.36 1111.25 1097.03 1111.25C1090.53 1111.25 1084.44 1111.5 1078.78 1112C1073.28 1112.5 1068.44 1114 1064.28 1116.5C1060.28 1118.83 1057.03 1122.5 1054.53 1127.5C1052.03 1132.5 1050.69 1139.42 1050.53 1148.25H1041.28V1100.5H1230.03L1232.53 1148.25ZM1429.21 1253.25C1429.21 1259.58 1429.54 1264.75 1430.21 1268.75C1430.88 1272.58 1432.13 1275.58 1433.96 1277.75C1435.96 1279.75 1438.71 1281.17 1442.21 1282C1445.88 1282.83 1450.63 1283.33 1456.46 1283.5V1293H1375.46V1283.5C1381.29 1283.33 1385.96 1282.83 1389.46 1282C1393.13 1281.17 1395.96 1279.75 1397.96 1277.75C1399.96 1275.75 1401.29 1272.92 1401.96 1269.25C1402.63 1265.58 1402.96 1260.83 1402.96 1255V1200.75H1301.71V1253.25C1301.71 1259.58 1302.04 1264.75 1302.71 1268.75C1303.38 1272.58 1304.63 1275.58 1306.46 1277.75C1308.46 1279.75 1311.21 1281.17 1314.71 1282C1318.38 1282.83 1323.13 1283.33 1328.96 1283.5V1293H1247.96V1283.5C1253.79 1283.33 1258.46 1282.83 1261.96 1282C1265.63 1281.17 1268.46 1279.75 1270.46 1277.75C1272.46 1275.75 1273.79 1272.92 1274.46 1269.25C1275.13 1265.58 1275.46 1260.83 1275.46 1255V1138.5C1275.46 1132.67 1275.13 1128 1274.46 1124.5C1273.96 1120.83 1272.79 1118 1270.96 1116C1269.29 1113.83 1266.79 1112.42 1263.46 1111.75C1260.13 1110.92 1255.79 1110.33 1250.46 1110V1100.5H1326.46V1110C1321.13 1110.17 1316.79 1110.67 1313.46 1111.5C1310.29 1112.33 1307.79 1113.83 1305.96 1116C1304.29 1118.17 1303.13 1121.17 1302.46 1125C1301.96 1128.83 1301.71 1133.92 1301.71 1140.25V1188.25H1402.96V1138.5C1402.96 1132.67 1402.63 1128 1401.96 1124.5C1401.46 1120.83 1400.29 1118 1398.46 1116C1396.79 1113.83 1394.29 1112.42 1390.96 1111.75C1387.63 1110.92 1383.29 1110.33 1377.96 1110V1100.5H1453.96V1110C1448.63 1110.17 1444.29 1110.67 1440.96 1111.5C1437.79 1112.33 1435.29 1113.83 1433.46 1116C1431.79 1118.17 1430.63 1121.17 1429.96 1125C1429.46 1128.83 1429.21 1133.92 1429.21 1140.25V1253.25ZM1589.91 1223.25H1523.16C1520.33 1230.08 1517.91 1236.17 1515.91 1241.5C1513.91 1246.67 1512.25 1251.17 1510.91 1255C1509.75 1258.83 1508.91 1262.08 1508.41 1264.75C1507.91 1267.42 1507.66 1269.58 1507.66 1271.25C1507.66 1275.92 1509.16 1279.17 1512.16 1281C1515.16 1282.67 1520.16 1283.5 1527.16 1283.5V1293H1466.41V1283.5C1470.25 1283 1473.5 1282.33 1476.16 1281.5C1479 1280.67 1481.41 1279.5 1483.41 1278C1485.58 1276.5 1487.41 1274.58 1488.91 1272.25C1490.58 1269.75 1492.16 1266.75 1493.66 1263.25L1558.66 1100.5H1569.41L1626.16 1241.5C1630 1250.83 1633.33 1258.33 1636.16 1264C1639 1269.5 1641.75 1273.67 1644.41 1276.5C1647.08 1279.33 1649.91 1281.17 1652.91 1282C1656.08 1282.83 1659.83 1283.25 1664.16 1283.25V1293H1582.66V1283.25C1591.5 1283.25 1597.58 1282.42 1600.91 1280.75C1604.25 1279.08 1605.91 1276.33 1605.91 1272.5C1605.91 1270.83 1605.83 1269.33 1605.66 1268C1605.5 1266.5 1605.16 1264.92 1604.66 1263.25C1604.33 1261.58 1603.75 1259.75 1602.91 1257.75C1602.25 1255.58 1601.33 1253.08 1600.16 1250.25L1589.91 1223.25ZM1528.16 1210.75H1585.16L1557.41 1137L1528.16 1210.75ZM1726.03 1245.75C1726.03 1254.08 1726.36 1260.67 1727.03 1265.5C1727.69 1270.33 1728.94 1274.08 1730.78 1276.75C1732.78 1279.42 1735.53 1281.17 1739.03 1282C1742.69 1282.83 1747.44 1283.33 1753.28 1283.5V1293H1672.28V1283.5C1678.11 1283.33 1682.78 1282.83 1686.28 1282C1689.94 1281 1692.78 1279.25 1694.78 1276.75C1696.78 1274.25 1698.11 1270.75 1698.78 1266.25C1699.44 1261.58 1699.78 1255.33 1699.78 1247.5V1146C1699.78 1139 1699.44 1133.25 1698.78 1128.75C1698.28 1124.08 1697.11 1120.42 1695.28 1117.75C1693.61 1115.08 1691.11 1113.25 1687.78 1112.25C1684.44 1111.08 1680.11 1110.33 1674.78 1110V1100.5H1750.78V1110C1745.44 1110.17 1741.11 1110.83 1737.78 1112C1734.61 1113.17 1732.11 1115.17 1730.28 1118C1728.61 1120.67 1727.44 1124.42 1726.78 1129.25C1726.28 1134.08 1726.03 1140.25 1726.03 1147.75V1245.75Z" fill="white"/>
<rect x="401" y="1461" width="12" height="12" fill="white"/>
<rect x="1527" y="1461" width="12" height="12" fill="white"/>
<defs>
<linearGradient id="paint0_linear_109_186" x1="1734.68" y1="478.573" x2="466.753" y2="1405.97" gradientUnits="userSpaceOnUse">
<stop stop-color="#8C201E"/>
<stop offset="0.8845" stop-color="#BA7978"/>
</linearGradient>
<linearGradient id="paint1_linear_109_186" x1="976.978" y1="417.058" x2="949.808" y2="1141.59" gradientUnits="userSpaceOnUse">
<stop stop-color="#C4AB69"/>
<stop offset="0.8845" stop-color="#ECE4CF"/>
</linearGradient>
<linearGradient id="paint2_linear_109_186" x1="1112.06" y1="422.124" x2="1084.89" y2="1146.65" gradientUnits="userSpaceOnUse">
<stop stop-color="#C4AB69"/>
<stop offset="0.8845" stop-color="#ECE4CF"/>
</linearGradient>
<linearGradient id="paint3_linear_109_186" x1="1189.07" y1="425.011" x2="1161.9" y2="1149.54" gradientUnits="userSpaceOnUse">
<stop stop-color="#C4AB69"/>
<stop offset="0.8845" stop-color="#ECE4CF"/>
</linearGradient>
<linearGradient id="paint4_linear_109_186" x1="1117.36" y1="422.323" x2="1090.19" y2="1146.85" gradientUnits="userSpaceOnUse">
<stop stop-color="#C4AB69"/>
<stop offset="0.8845" stop-color="#ECE4CF"/>
</linearGradient>
<linearGradient id="paint5_linear_109_186" x1="1169.66" y1="424.284" x2="1142.49" y2="1148.81" gradientUnits="userSpaceOnUse">
<stop stop-color="#C4AB69"/>
<stop offset="0.8845" stop-color="#ECE4CF"/>
</linearGradient>
<linearGradient id="paint6_linear_109_186" x1="1286.46" y1="428.663" x2="1259.29" y2="1153.19" gradientUnits="userSpaceOnUse">
<stop stop-color="#C4AB69"/>
<stop offset="0.8845" stop-color="#ECE4CF"/>
</linearGradient>
<linearGradient id="paint7_linear_109_186" x1="989.202" y1="417.517" x2="962.032" y2="1142.05" gradientUnits="userSpaceOnUse">
<stop stop-color="#C4AB69"/>
<stop offset="0.8845" stop-color="#ECE4CF"/>
</linearGradient>
<linearGradient id="paint8_linear_109_186" x1="868.739" y1="412.999" x2="841.569" y2="1137.53" gradientUnits="userSpaceOnUse">
<stop stop-color="#C4AB69"/>
<stop offset="0.8845" stop-color="#ECE4CF"/>
</linearGradient>
<linearGradient id="paint9_linear_109_186" x1="785.041" y1="409.86" x2="757.872" y2="1134.39" gradientUnits="userSpaceOnUse">
<stop stop-color="#C4AB69"/>
<stop offset="0.8845" stop-color="#ECE4CF"/>
</linearGradient>
<linearGradient id="paint10_linear_109_186" x1="825.857" y1="411.391" x2="798.687" y2="1135.92" gradientUnits="userSpaceOnUse">
<stop stop-color="#C4AB69"/>
<stop offset="0.8845" stop-color="#ECE4CF"/>
</linearGradient>
<linearGradient id="paint11_linear_109_186" x1="788.152" y1="410.301" x2="760.982" y2="1134.83" gradientUnits="userSpaceOnUse">
<stop stop-color="#C4AB69"/>
<stop offset="0.8845" stop-color="#ECE4CF"/>
</linearGradient>
<linearGradient id="paint12_linear_109_186" x1="672.057" y1="405.623" x2="644.887" y2="1130.15" gradientUnits="userSpaceOnUse">
<stop stop-color="#C4AB69"/>
<stop offset="0.8845" stop-color="#ECE4CF"/>
</linearGradient>
</defs>
</svg>
