<svg width="3924" height="599" viewBox="0 0 3924 599" fill="none" xmlns="http://www.w3.org/2000/svg">
<path d="M1153 216.5H1132.5C1131.5 202.167 1129.17 190.167 1125.5 180.5C1121.83 170.833 1116.5 163.333 1109.5 158C1102.83 152.333 1094.33 148.333 1084 146C1073.67 143.667 1061.33 142.5 1047 142.5C1034.67 142.5 1024.67 142.833 1017 143.5C1009.67 143.833 1004 144.667 1000 146C996 147.333 993.333 149 992 151C991 152.667 990.5 155 990.5 158V425.5C990.5 436.167 991.167 445.333 992.5 453C994.167 460.667 997.167 467 1001.5 472C1006.17 476.667 1012.67 480.333 1021 483C1029.67 485.333 1041 486.667 1055 487V506H866V487C880 486.667 891.333 485.333 900 483C908.667 480.333 915.167 476.667 919.5 472C924.167 467 927.167 460.667 928.5 453C930.167 445.333 931 436.167 931 425.5V158C931 155 930.333 152.667 929 151C928 149 925.667 147.333 922 146C918.667 144.667 913.833 143.833 907.5 143.5C901.167 142.833 892.667 142.5 882 142.5C869 142.5 856.833 143 845.5 144C834.5 145 824.833 148 816.5 153C808.5 157.667 802 165 797 175C792 185 789.333 198.833 789 216.5H770.5V121H1148L1153 216.5ZM1490.37 217.5C1490.37 244.167 1482.37 266.333 1466.37 284C1450.37 301.667 1424.87 313.5 1389.87 319.5L1500.37 452.5C1509.37 463.5 1519.2 471.5 1529.87 476.5C1540.87 481.167 1553.87 484.667 1568.87 487V506H1472.37L1349.87 349C1345.53 343.333 1341.37 338.833 1337.37 335.5C1333.7 332.167 1329.7 329.667 1325.37 328C1321.37 326 1316.53 324.833 1310.87 324.5C1305.53 323.833 1299.03 323.5 1291.37 323.5V427.5C1291.37 439.833 1292.03 450 1293.37 458C1295.03 465.667 1298.2 471.667 1302.87 476C1307.87 480.333 1314.87 483.333 1323.87 485C1333.2 486.333 1345.37 487 1360.37 487V506H1183.87V487C1195.53 486.667 1204.87 485.667 1211.87 484C1219.2 482.333 1224.87 479.5 1228.87 475.5C1232.87 471.5 1235.53 465.833 1236.87 458.5C1238.2 451.167 1238.87 441.667 1238.87 430V197C1238.87 185.333 1238.2 176 1236.87 169C1235.87 161.667 1233.53 156 1229.87 152C1226.53 147.667 1221.53 144.833 1214.87 143.5C1208.2 141.833 1199.53 140.667 1188.87 140V121H1345.87C1391.87 121 1427.37 129.5 1452.37 146.5C1477.7 163.5 1490.37 187.167 1490.37 217.5ZM1291.37 298.5H1326.87C1360.2 298.5 1384.87 292.5 1400.87 280.5C1417.2 268.167 1425.37 248 1425.37 220C1425.37 193 1418.87 173.667 1405.87 162C1393.2 150.333 1373.2 144.5 1345.87 144.5H1299.87C1294.2 144.5 1291.37 147.333 1291.37 153V298.5ZM1905.67 351C1905.67 377.333 1903 400.5 1897.67 420.5C1892.67 440.5 1884.33 457.167 1872.67 470.5C1861.33 483.833 1846.5 494 1828.17 501C1809.83 507.667 1787.67 511 1761.67 511C1737 511 1715.5 508.667 1697.17 504C1678.83 499 1663.5 491 1651.17 480C1638.83 468.667 1629.67 454 1623.67 436C1617.67 418 1614.67 395.833 1614.67 369.5V237.5C1614.67 212.833 1614 193.833 1612.67 180.5C1611.67 167.167 1608.33 157.333 1602.67 151C1598.67 146.667 1593.17 143.833 1586.17 142.5C1579.5 140.833 1570.5 140 1559.17 140V121H1729.67V140C1718.33 140 1709.17 140.667 1702.17 142C1695.17 143.333 1689.67 146.667 1685.67 152C1681 158 1678 167.667 1676.67 181C1675.33 194 1674.67 212.833 1674.67 237.5V373.5C1674.67 390.5 1676.33 405.667 1679.67 419C1683.33 432 1689.17 443.167 1697.17 452.5C1705.17 461.5 1715.5 468.333 1728.17 473C1741.17 477.667 1757 480 1775.67 480C1809 480 1834 470.833 1850.67 452.5C1867.33 433.833 1875.67 406.5 1875.67 370.5V250C1875.67 220.333 1874.5 197.833 1872.17 182.5C1869.83 167.167 1865.5 156.333 1859.17 150C1854.5 145.667 1848.67 143 1841.67 142C1834.67 140.667 1826 140 1815.67 140V121H1960.67V140C1950 140 1941.17 140.833 1934.17 142.5C1927.5 144.167 1922.17 147.833 1918.17 153.5C1913.17 160.5 1909.83 171.5 1908.17 186.5C1906.5 201.167 1905.67 222.333 1905.67 250V351ZM2105.33 294.5C2123.33 294.5 2138.33 293.5 2150.33 291.5C2162.67 289.167 2172.33 285.667 2179.33 281C2186.67 276.333 2191.83 270.333 2194.83 263C2198.17 255.667 2199.83 247 2199.83 237H2217.33V373.5H2199.83C2199.83 363.5 2198.33 354.833 2195.33 347.5C2192.67 340.167 2187.67 334.167 2180.33 329.5C2173.33 324.5 2163.67 320.833 2151.33 318.5C2139.33 315.833 2124 314.5 2105.33 314.5V427.5C2105.33 438.5 2106.67 447.667 2109.33 455C2112 462 2116.5 467.833 2122.83 472.5C2129.5 476.833 2138.17 480 2148.83 482C2159.5 483.667 2172.67 484.5 2188.33 484.5C2206 484.5 2221 483.333 2233.33 481C2245.67 478.333 2256 474 2264.33 468C2272.67 462 2279.33 454.167 2284.33 444.5C2289.33 434.5 2293.5 422.167 2296.83 407.5H2315.83L2308.33 506H1997.83V487C2009.5 486.667 2018.83 485.667 2025.83 484C2033.17 482.333 2038.83 479.5 2042.83 475.5C2046.83 471.5 2049.5 465.833 2050.83 458.5C2052.17 451.167 2052.83 441.667 2052.83 430V197C2052.83 185.333 2052.17 176 2050.83 169C2049.83 161.667 2047.5 156 2043.83 152C2040.5 147.667 2035.5 144.833 2028.83 143.5C2022.17 141.833 2013.5 140.667 2002.83 140V121H2291.83L2296.33 209H2278.83C2276.83 195.667 2273.5 184.833 2268.83 176.5C2264.5 167.833 2258.33 161 2250.33 156C2242.67 151 2232.83 147.5 2220.83 145.5C2208.83 143.5 2194.33 142.5 2177.33 142.5H2113.83C2108.17 142.5 2105.33 145.333 2105.33 151V294.5ZM2859.05 216.5H2838.55C2837.55 202.167 2835.22 190.167 2831.55 180.5C2827.89 170.833 2822.55 163.333 2815.55 158C2808.89 152.333 2800.39 148.333 2790.05 146C2779.72 143.667 2767.39 142.5 2753.05 142.5C2740.72 142.5 2730.72 142.833 2723.05 143.5C2715.72 143.833 2710.05 144.667 2706.05 146C2702.05 147.333 2699.39 149 2698.05 151C2697.05 152.667 2696.55 155 2696.55 158V425.5C2696.55 436.167 2697.22 445.333 2698.55 453C2700.22 460.667 2703.22 467 2707.55 472C2712.22 476.667 2718.72 480.333 2727.05 483C2735.72 485.333 2747.05 486.667 2761.05 487V506H2572.05V487C2586.05 486.667 2597.39 485.333 2606.05 483C2614.72 480.333 2621.22 476.667 2625.55 472C2630.22 467 2633.22 460.667 2634.55 453C2636.22 445.333 2637.05 436.167 2637.05 425.5V158C2637.05 155 2636.39 152.667 2635.05 151C2634.05 149 2631.72 147.333 2628.05 146C2624.72 144.667 2619.89 143.833 2613.55 143.5C2607.22 142.833 2598.72 142.5 2588.05 142.5C2575.05 142.5 2562.89 143 2551.55 144C2540.55 145 2530.89 148 2522.55 153C2514.55 157.667 2508.05 165 2503.05 175C2498.05 185 2495.39 198.833 2495.05 216.5H2476.55V121H2854.05L2859.05 216.5ZM3252.42 426.5C3252.42 439.167 3253.09 449.5 3254.42 457.5C3255.76 465.167 3258.26 471.167 3261.92 475.5C3265.92 479.5 3271.42 482.333 3278.42 484C3285.76 485.667 3295.26 486.667 3306.92 487V506H3144.92V487C3156.59 486.667 3165.92 485.667 3172.92 484C3180.26 482.333 3185.92 479.5 3189.92 475.5C3193.92 471.5 3196.59 465.833 3197.92 458.5C3199.26 451.167 3199.92 441.667 3199.92 430V321.5H2997.42V426.5C2997.42 439.167 2998.09 449.5 2999.42 457.5C3000.76 465.167 3003.26 471.167 3006.92 475.5C3010.92 479.5 3016.42 482.333 3023.42 484C3030.76 485.667 3040.26 486.667 3051.92 487V506H2889.92V487C2901.59 486.667 2910.92 485.667 2917.92 484C2925.26 482.333 2930.92 479.5 2934.92 475.5C2938.92 471.5 2941.59 465.833 2942.92 458.5C2944.26 451.167 2944.92 441.667 2944.92 430V197C2944.92 185.333 2944.26 176 2942.92 169C2941.92 161.667 2939.59 156 2935.92 152C2932.59 147.667 2927.59 144.833 2920.92 143.5C2914.26 141.833 2905.59 140.667 2894.92 140V121H3046.92V140C3036.26 140.333 3027.59 141.333 3020.92 143C3014.59 144.667 3009.59 147.667 3005.92 152C3002.59 156.333 3000.26 162.333 2998.92 170C2997.92 177.667 2997.42 187.833 2997.42 200.5V296.5H3199.92V197C3199.92 185.333 3199.26 176 3197.92 169C3196.92 161.667 3194.59 156 3190.92 152C3187.59 147.667 3182.59 144.833 3175.92 143.5C3169.26 141.833 3160.59 140.667 3149.92 140V121H3301.92V140C3291.26 140.333 3282.59 141.333 3275.92 143C3269.59 144.667 3264.59 147.667 3260.92 152C3257.59 156.333 3255.26 162.333 3253.92 170C3252.92 177.667 3252.42 187.833 3252.42 200.5V426.5ZM3573.82 366.5H3440.32C3434.66 380.167 3429.82 392.333 3425.82 403C3421.82 413.333 3418.49 422.333 3415.82 430C3413.49 437.667 3411.82 444.167 3410.82 449.5C3409.82 454.833 3409.32 459.167 3409.32 462.5C3409.32 471.833 3412.32 478.333 3418.32 482C3424.32 485.333 3434.32 487 3448.32 487V506H3326.82V487C3334.49 486 3340.99 484.667 3346.32 483C3351.99 481.333 3356.82 479 3360.82 476C3365.16 473 3368.82 469.167 3371.82 464.5C3375.16 459.5 3378.32 453.5 3381.32 446.5L3511.32 121H3532.82L3646.32 403C3653.99 421.667 3660.66 436.667 3666.32 448C3671.99 459 3677.49 467.333 3682.82 473C3688.16 478.667 3693.82 482.333 3699.82 484C3706.16 485.667 3713.66 486.5 3722.32 486.5V506H3559.32V486.5C3576.99 486.5 3589.16 484.833 3595.82 481.5C3602.49 478.167 3605.82 472.667 3605.82 465C3605.82 461.667 3605.66 458.667 3605.32 456C3604.99 453 3604.32 449.833 3603.32 446.5C3602.66 443.167 3601.49 439.5 3599.82 435.5C3598.49 431.167 3596.66 426.167 3594.32 420.5L3573.82 366.5ZM3450.32 341.5H3564.32L3508.82 194L3450.32 341.5ZM3846.05 411.5C3846.05 428.167 3846.72 441.333 3848.05 451C3849.39 460.667 3851.89 468.167 3855.55 473.5C3859.55 478.833 3865.05 482.333 3872.05 484C3879.39 485.667 3888.89 486.667 3900.55 487V506H3738.55V487C3750.22 486.667 3759.55 485.667 3766.55 484C3773.89 482 3779.55 478.5 3783.55 473.5C3787.55 468.5 3790.22 461.5 3791.55 452.5C3792.89 443.167 3793.55 430.667 3793.55 415V212C3793.55 198 3792.89 186.5 3791.55 177.5C3790.55 168.167 3788.22 160.833 3784.55 155.5C3781.22 150.167 3776.22 146.5 3769.55 144.5C3762.89 142.167 3754.22 140.667 3743.55 140V121H3895.55V140C3884.89 140.333 3876.22 141.667 3869.55 144C3863.22 146.333 3858.22 150.333 3854.55 156C3851.22 161.333 3848.89 168.833 3847.55 178.5C3846.55 188.167 3846.05 200.5 3846.05 215.5V411.5Z" fill="white"/>
<path d="M314.996 398.668C314.996 398.668 403.281 306.076 403.281 197.839C403.281 89.6011 314.996 0 314.996 0C314.996 0 226.711 89.6071 226.711 197.839C226.711 306.07 314.996 398.668 314.996 398.668Z" fill="url(#paint0_linear_110_217)"/>
<path d="M389.31 497.415C409.644 511.077 435.4 517.333 435.4 517.333L439.714 483.802C425.403 481.436 411.968 478.016 399.682 474.072L389.31 497.415Z" fill="url(#paint1_linear_110_217)"/>
<path d="M338.213 417.644C338.213 417.644 400.64 462.692 480.232 462.692C556.351 462.692 622.252 417.644 622.252 417.644C622.252 417.644 549.678 373.014 476.27 373.014C401.194 373.02 338.213 417.644 338.213 417.644Z" fill="url(#paint2_linear_110_217)"/>
<path d="M477.224 96.5608C468.388 52.502 452.755 21.0322 452.755 21.0322C452.755 21.0322 423.305 36.2249 391.197 64.8468C401.82 84.6211 411.663 107.202 418.455 131.748C438.569 117.241 458.594 105.7 477.224 96.5608Z" fill="url(#paint3_linear_110_217)"/>
<path d="M427.786 197.837C427.786 270.214 392.724 334.982 365.162 374.721C389.536 363.509 422.883 351.849 460.108 349.114L461.466 347.363C591.6 254.771 576.097 88.1455 576.097 88.1455C576.097 88.1455 499.222 100.568 424.319 157.913C426.523 170.841 427.786 184.181 427.786 197.837Z" fill="url(#paint4_linear_110_217)"/>
<path d="M502.548 348.825H538.141C552.827 332.744 569.67 314.495 581.52 295.579C600.151 265.825 613.211 232.014 621.683 195.629C625.841 177.779 628.427 161.085 630 146.285H598.757C597.285 159.119 595.712 173.65 592.787 188.944C586.334 222.666 574.955 253.76 558.135 280.845C541.894 306.982 523.836 327.603 502.548 348.825Z" fill="url(#paint5_linear_110_217)"/>
<path d="M314.996 431.107L306.119 437.512C304.659 438.567 285.921 451.895 256.144 464.478C277.515 543.772 314.996 591.566 314.996 591.566C314.996 591.566 352.478 543.772 373.849 464.478C344.077 451.895 325.333 438.567 323.873 437.512L314.996 431.107Z" fill="url(#paint6_linear_110_217)"/>
<path d="M190.278 483.8L194.592 517.332C194.592 517.332 220.348 511.076 240.683 497.414L230.31 474.077C218.024 478.015 204.589 481.435 190.278 483.8Z" fill="url(#paint7_linear_110_217)"/>
<path d="M153.722 373.019C80.314 373.019 7.74023 417.649 7.74023 417.649C7.74023 417.649 73.6411 462.697 149.76 462.697C229.352 462.697 291.779 417.649 291.779 417.649C291.779 417.649 228.798 373.019 153.722 373.019Z" fill="url(#paint8_linear_110_217)"/>
<path d="M238.793 64.8468C206.686 36.2309 177.236 21.0322 177.236 21.0322C177.236 21.0322 161.602 52.496 152.767 96.5608C171.397 105.7 191.422 117.241 211.542 131.748C218.334 107.202 228.176 84.6152 238.793 64.8468Z" fill="url(#paint9_linear_110_217)"/>
<path d="M168.527 347.363L169.885 349.114C207.11 351.855 240.457 363.509 264.831 374.721C237.269 334.982 202.207 270.208 202.207 197.837C202.207 184.181 203.464 170.841 205.674 157.913C130.771 100.562 53.8957 88.1455 53.8957 88.1455C53.8957 88.1455 38.3991 254.771 168.527 347.363Z" fill="url(#paint10_linear_110_217)"/>
<path d="M48.4738 295.577C60.3182 314.493 77.1673 332.742 91.8536 348.823H127.446C106.159 327.595 88.1001 306.974 71.8707 280.837C55.0514 253.752 43.6717 222.664 37.2193 188.936C34.2939 173.642 32.721 159.111 31.2494 146.277H0C1.56694 161.077 4.15866 177.771 8.3173 195.621C16.7835 232.012 29.8493 265.823 48.4738 295.577Z" fill="url(#paint11_linear_110_217)"/>
<defs>
<linearGradient id="paint0_linear_110_217" x1="318.747" y1="97.8148" x2="296.555" y2="689.607" gradientUnits="userSpaceOnUse">
<stop stop-color="#C4AB69"/>
<stop offset="0.8845" stop-color="#ECE4CF"/>
</linearGradient>
<linearGradient id="paint1_linear_110_217" x1="429.084" y1="101.953" x2="406.892" y2="693.745" gradientUnits="userSpaceOnUse">
<stop stop-color="#C4AB69"/>
<stop offset="0.8845" stop-color="#ECE4CF"/>
</linearGradient>
<linearGradient id="paint2_linear_110_217" x1="491.982" y1="104.311" x2="469.79" y2="696.104" gradientUnits="userSpaceOnUse">
<stop stop-color="#C4AB69"/>
<stop offset="0.8845" stop-color="#ECE4CF"/>
</linearGradient>
<linearGradient id="paint3_linear_110_217" x1="433.408" y1="102.115" x2="411.216" y2="693.908" gradientUnits="userSpaceOnUse">
<stop stop-color="#C4AB69"/>
<stop offset="0.8845" stop-color="#ECE4CF"/>
</linearGradient>
<linearGradient id="paint4_linear_110_217" x1="476.127" y1="103.715" x2="453.935" y2="695.507" gradientUnits="userSpaceOnUse">
<stop stop-color="#C4AB69"/>
<stop offset="0.8845" stop-color="#ECE4CF"/>
</linearGradient>
<linearGradient id="paint5_linear_110_217" x1="571.531" y1="107.295" x2="549.339" y2="699.087" gradientUnits="userSpaceOnUse">
<stop stop-color="#C4AB69"/>
<stop offset="0.8845" stop-color="#ECE4CF"/>
</linearGradient>
<linearGradient id="paint6_linear_110_217" x1="328.732" y1="98.1877" x2="306.54" y2="689.98" gradientUnits="userSpaceOnUse">
<stop stop-color="#C4AB69"/>
<stop offset="0.8845" stop-color="#ECE4CF"/>
</linearGradient>
<linearGradient id="paint7_linear_110_217" x1="230.337" y1="94.4991" x2="208.145" y2="686.291" gradientUnits="userSpaceOnUse">
<stop stop-color="#C4AB69"/>
<stop offset="0.8845" stop-color="#ECE4CF"/>
</linearGradient>
<linearGradient id="paint8_linear_110_217" x1="161.975" y1="91.935" x2="139.783" y2="683.727" gradientUnits="userSpaceOnUse">
<stop stop-color="#C4AB69"/>
<stop offset="0.8845" stop-color="#ECE4CF"/>
</linearGradient>
<linearGradient id="paint9_linear_110_217" x1="195.312" y1="93.1868" x2="173.12" y2="684.979" gradientUnits="userSpaceOnUse">
<stop stop-color="#C4AB69"/>
<stop offset="0.8845" stop-color="#ECE4CF"/>
</linearGradient>
<linearGradient id="paint10_linear_110_217" x1="164.515" y1="92.2934" x2="142.323" y2="684.085" gradientUnits="userSpaceOnUse">
<stop stop-color="#C4AB69"/>
<stop offset="0.8845" stop-color="#ECE4CF"/>
</linearGradient>
<linearGradient id="paint11_linear_110_217" x1="69.6887" y1="88.4737" x2="47.4967" y2="680.266" gradientUnits="userSpaceOnUse">
<stop stop-color="#C4AB69"/>
<stop offset="0.8845" stop-color="#ECE4CF"/>
</linearGradient>
</defs>
</svg>
